<?xml version="1.0" standalone="no"?>
<!DOCTYPE svg PUBLIC "-//W3C//DTD SVG 20010904//EN"
 "http://www.w3.org/TR/2001/REC-SVG-20010904/DTD/svg10.dtd">
<svg version="1.0" xmlns="http://www.w3.org/2000/svg"
 width="256.000000pt" height="256.000000pt" viewBox="0 0 256.000000 256.000000"
 preserveAspectRatio="xMidYMid meet">
<metadata>
Created by potrace 1.14, written by Peter Selinger 2001-2017
</metadata>
<g transform="translate(0.000000,256.000000) scale(0.100000,-0.100000)"
fill="#000000" stroke="none">
<path d="M304 2051 c-2 -2 -4 -298 -4 -657 0 -612 1 -652 18 -656 9 -2 68 -3
131 -2 63 1 108 -1 101 -6 -8 -5 -9 -10 -2 -14 6 -3 13 3 17 14 4 12 11 18 18
14 8 -5 8 -2 0 7 -15 15 -18 33 -5 25 5 -3 9 1 9 9 0 8 -4 12 -8 9 -4 -2 -8
30 -8 71 0 46 3 73 9 70 6 -3 10 -1 10 4 0 6 -4 11 -8 11 -13 0 -11 74 2 82 8
6 8 8 -1 8 -8 0 -11 34 -10 119 1 66 4 118 6 115 2 -2 10 1 18 7 7 6 13 8 13
3 0 -5 14 -9 30 -10 17 -1 30 3 30 9 0 5 7 3 17 -4 13 -11 17 -11 20 -1 3 6 9
9 15 6 5 -3 0 -13 -11 -21 -12 -8 -21 -18 -21 -24 0 -5 9 0 21 12 13 13 28 18
42 15 12 -3 16 -3 10 0 -7 3 -13 10 -13 16 0 6 7 4 17 -3 13 -11 17 -11 21 -1
3 10 7 10 19 1 11 -10 16 -10 23 0 5 10 9 10 15 2 5 -9 10 -9 20 -1 9 8 15 8
20 0 3 -5 0 -10 -8 -10 -8 0 -18 -7 -21 -16 -10 -25 -7 -25 15 -3 13 13 28 18
42 15 12 -3 16 -3 10 0 -7 3 -13 10 -13 16 0 6 7 4 17 -3 14 -12 17 -12 21 0
3 10 9 7 19 -10 8 -13 12 -16 9 -7 -3 9 2 19 10 22 8 3 12 2 9 -4 -3 -5 4 -8
15 -7 11 1 20 5 20 10 0 4 5 5 10 2 8 -5 7 -11 -1 -21 -10 -12 -14 -12 -21 -2
-8 11 -9 11 -6 0 5 -18 8 -18 46 6 19 11 30 22 24 25 -10 7 -10 43 0 53 4 3 3
17 -2 30 -6 15 -6 26 1 30 6 3 6 11 1 17 -5 7 -7 24 -6 40 l3 27 -240 0 c-190
0 -239 3 -233 13 5 8 2 7 -9 -2 -10 -8 -21 -11 -24 -7 -4 4 -1 11 7 16 9 6 10
10 3 10 -7 0 -11 24 -12 70 0 44 3 69 9 65 6 -3 10 -1 10 4 0 6 -4 11 -8 11
-5 0 -9 18 -10 41 -2 35 1 40 16 35 15 -5 15 -5 1 6 -19 16 -21 95 -2 95 9 0
10 -4 1 -14 -9 -11 -7 -12 8 -7 18 7 18 6 -1 -16 -11 -13 -14 -20 -8 -16 7 4
13 3 13 -3 0 -5 -5 -12 -10 -14 -6 -3 -5 -4 2 -3 7 2 13 10 13 19 0 8 3 19 7
22 4 4 4 14 0 23 -5 14 -4 15 10 2 11 -11 13 -19 6 -28 -6 -7 -8 -15 -4 -19 3
-3 6 -1 6 6 0 7 6 11 13 8 7 -3 13 3 13 13 0 10 -4 17 -7 14 -4 -2 -10 -1 -13
4 -3 5 24 8 59 8 35 0 62 -3 59 -7 -2 -5 -12 -6 -22 -3 -14 5 -14 4 -3 -4 16
-11 41 -5 41 9 0 6 6 4 14 -3 8 -7 12 -17 9 -21 -3 -5 3 -4 13 1 28 15 36 15
46 0 8 -10 9 -10 5 2 -2 8 -15 15 -29 15 -15 0 -29 3 -32 6 -4 3 12 6 34 5 22
0 40 -5 40 -10 0 -5 6 -4 13 2 20 17 58 11 52 -8 -3 -10 0 -17 8 -17 9 0 12 7
9 19 -2 10 1 18 7 18 7 0 9 -5 5 -12 -5 -8 -3 -8 7 -2 19 12 132 12 141 -1 4
-5 0 -21 -8 -35 l-15 -25 20 23 c11 13 23 22 28 22 4 -1 9 4 11 12 3 10 2 10
-6 -1 -6 -8 -12 -9 -16 -3 -10 16 13 25 29 12 8 -7 15 -9 16 -4 4 30 -2 209
-7 213 -6 7 -853 8 -860 2z"/>
<path d="M1342 2045 c-12 -17 -9 -1305 3 -1306 34 -4 242 -5 253 -1 7 3 11 11
8 18 -3 8 -1 14 5 14 6 0 6 6 0 18 -14 27 -14 33 6 49 10 8 12 12 6 8 -14 -7
-14 -7 -17 48 -1 20 3 37 9 37 5 0 3 5 -5 10 -9 6 -11 10 -3 10 7 0 10 6 8 13
-7 16 -13 278 -7 272 2 -2 13 6 24 18 11 12 17 16 13 10 -3 -7 -1 -13 6 -13
15 0 2 -15 -14 -15 -7 -1 -11 -7 -9 -14 1 -7 -1 -10 -6 -7 -5 3 -9 -1 -9 -9 0
-12 4 -12 20 2 10 10 28 17 38 15 10 -2 19 1 19 7 0 6 -6 8 -13 5 -8 -3 -13 4
-14 18 -2 18 0 20 7 8 5 -8 10 -11 10 -6 0 5 6 3 13 -3 8 -6 17 -8 20 -4 4 3
7 -1 7 -10 0 -21 17 -31 26 -16 4 8 3 9 -4 5 -7 -4 -12 -3 -12 3 0 5 -3 18 -6
28 -5 14 -4 15 4 4 9 -12 13 -12 26 -2 11 9 16 10 16 2 0 -6 -5 -11 -11 -11
-5 0 -7 -5 -3 -11 5 -8 10 -6 16 5 7 13 20 15 65 11 31 -3 63 -10 70 -16 7 -7
13 -8 13 -3 0 4 5 3 12 -4 9 -9 9 -15 -1 -24 -11 -11 -13 -10 -8 5 4 11 3 16
-4 12 -14 -10 -6 -28 14 -31 9 -1 15 2 11 7 -3 5 1 9 9 9 16 0 28 -22 23 -42
-1 -7 -1 -10 1 -5 3 4 10 7 15 7 6 0 8 -3 5 -7 -4 -3 -2 -12 5 -20 6 -8 12
-60 14 -124 3 -163 12 -221 38 -254 l22 -28 146 -1 c118 -1 145 1 136 11 -7 9
-7 18 3 31 11 14 11 15 -1 5 -16 -15 -34 -17 -25 -4 3 5 -2 16 -10 25 -8 8
-16 26 -17 40 -1 14 -5 26 -8 26 -3 0 -7 12 -8 28 -1 20 1 23 8 12 7 -12 9
-10 7 7 0 12 -5 19 -10 16 -5 -3 -7 3 -6 13 2 11 0 25 -4 32 -5 6 -4 12 1 12
6 0 13 7 16 16 3 8 2 12 -4 9 -6 -3 -10 1 -10 9 0 8 5 18 10 21 6 4 8 10 5 15
-3 5 3 13 12 19 10 6 13 11 6 11 -6 0 -15 -4 -18 -10 -10 -16 -21 -11 -21 9 0
11 5 17 11 13 5 -3 4 2 -4 11 -11 14 -11 17 0 17 10 0 11 2 2 8 -6 4 -15 21
-19 37 -4 17 -14 40 -22 53 -8 12 -11 22 -8 22 4 0 -9 16 -28 35 -20 19 -34
41 -32 48 1 6 1 9 -1 5 -6 -10 -33 -11 -33 -2 0 4 8 13 18 21 9 8 11 12 5 8
-24 -12 -53 -14 -53 -4 0 6 -4 8 -9 5 -5 -4 -8 2 -6 11 1 12 10 17 25 15 16
-1 21 2 17 12 -4 10 -1 13 9 9 23 -9 -4 -35 -30 -28 -17 5 -18 4 -6 -4 20 -14
26 -14 45 5 12 12 13 19 4 30 -8 9 -8 14 -1 14 6 0 18 -10 26 -22 9 -12 16
-17 16 -11 0 7 -4 15 -10 18 -5 3 -10 13 -10 22 0 11 5 9 20 -8 10 -13 19 -18
20 -11 0 6 -4 12 -9 12 -16 0 -17 34 -1 53 8 9 18 17 23 17 5 0 2 -7 -7 -15
-16 -16 -12 -45 7 -45 8 0 7 4 -1 12 -8 8 -5 18 13 40 21 25 25 66 5 53 -8 -5
10 52 23 73 5 7 3 12 -4 12 -10 0 -10 3 -2 11 6 6 9 19 5 28 -4 12 -2 14 9 6
8 -5 6 -2 -4 8 -11 9 -15 17 -9 17 5 0 9 8 8 18 0 9 5 16 12 14 8 -1 11 2 7 7
-3 6 -12 8 -20 4 -15 -5 -18 6 -18 59 0 10 -4 15 -8 12 -8 -5 -14 18 -10 39 1
5 -3 6 -9 2 -9 -6 -14 8 -11 28 1 5 -3 6 -9 2 -5 -3 -10 -2 -10 3 0 19 -66 74
-121 102 -109 56 -158 62 -462 64 -185 1 -281 -2 -285 -9z m338 -207 c0 -5 -4
-7 -9 -3 -5 3 -12 1 -16 -5 -3 -5 -11 -10 -16 -10 -6 0 -7 5 -3 12 4 7 3 8 -5
4 -6 -4 -9 -12 -6 -17 4 -5 1 -9 -4 -9 -6 0 -11 -5 -11 -11 0 -8 5 -7 16 2 14
11 18 10 30 -6 8 -10 14 -14 14 -8 0 7 -5 15 -10 18 -6 4 -7 11 -4 17 4 5 15
-3 25 -19 10 -15 19 -23 19 -16 0 6 -4 15 -10 18 -5 3 -10 11 -10 17 0 7 5 7
14 -1 10 -9 15 -8 19 3 4 10 1 13 -9 9 -7 -3 -14 -1 -14 4 0 13 33 12 42 -1 4
-6 2 -14 -5 -19 -8 -6 -7 -7 4 -4 9 3 23 0 30 -6 11 -10 11 -9 1 4 -6 9 -8 20
-4 24 4 5 1 5 -5 1 -7 -4 -13 -3 -13 3 0 5 9 9 20 8 12 -1 19 -7 17 -16 -1 -9
7 -16 18 -18 17 -2 17 -2 3 5 -12 5 -15 11 -8 22 5 8 10 10 10 4 0 -17 28 -25
36 -12 4 6 3 8 -4 4 -6 -3 -13 -2 -16 3 -4 5 1 8 11 7 9 -2 18 -13 20 -25 3
-19 0 -22 -14 -17 -14 6 -15 4 -6 -5 14 -14 34 -3 31 18 -2 9 3 18 10 20 8 3
10 -1 6 -14 -6 -14 -4 -16 6 -6 15 14 39 4 77 -31 25 -23 61 -112 40 -99 -8 5
-8 2 1 -9 20 -24 5 -103 -25 -139 -46 -54 -75 -63 -227 -67 -100 -3 -137 -1
-132 7 4 6 3 11 -2 11 -5 0 -8 27 -8 59 1 36 5 57 11 54 6 -3 5 0 -2 7 -10 11
-9 16 5 27 9 8 12 12 6 9 -7 -3 -15 1 -18 10 -4 10 -2 13 7 8 8 -5 7 -2 -2 9
-9 12 -10 17 -2 17 7 0 9 5 5 12 -7 11 -13 126 -8 138 4 10 74 8 74 -2z m584
-323 c-4 -8 -10 -12 -15 -9 -11 6 -2 24 11 24 5 0 7 -7 4 -15z"/>
<path d="M1890 1800 c0 -5 5 -10 10 -10 6 0 10 5 10 10 0 6 -4 10 -10 10 -5 0
-10 -4 -10 -10z"/>
<path d="M1620 1780 c0 -5 7 -7 15 -4 8 4 15 8 15 10 0 2 -7 4 -15 4 -8 0 -15
-4 -15 -10z"/>
<path d="M1747 1779 c7 -7 15 -10 18 -7 3 3 -2 9 -12 12 -14 6 -15 5 -6 -5z"/>
<path d="M1916 1782 c-3 -5 1 -9 9 -9 8 0 12 4 9 9 -3 4 -7 8 -9 8 -2 0 -6 -4
-9 -8z"/>
<path d="M1639 1760 c-1 -5 -2 -16 -3 -22 -1 -7 -8 -12 -15 -10 -7 1 -10 -2
-6 -8 5 -8 11 -7 21 1 8 6 12 14 9 17 -3 3 0 11 6 19 9 9 8 13 0 13 -6 0 -12
-4 -12 -10z"/>
<path d="M1630 1619 c0 -5 5 -7 10 -4 6 3 10 8 10 11 0 2 -4 4 -10 4 -5 0 -10
-5 -10 -11z"/>
<path d="M1626 1578 c3 -5 10 -6 15 -3 13 9 11 12 -6 12 -8 0 -12 -4 -9 -9z"/>
<path d="M1610 1546 c0 -2 7 -7 16 -10 8 -3 12 -2 9 4 -6 10 -25 14 -25 6z"/>
<path d="M1610 1506 c0 -2 7 -7 16 -10 8 -3 12 -2 9 4 -6 10 -25 14 -25 6z"/>
<path d="M1181 1914 c0 -11 3 -14 6 -6 3 7 2 16 -1 19 -3 4 -6 -2 -5 -13z"/>
<path d="M1193 1870 c-1 -11 2 -20 7 -20 4 0 7 7 6 15 -3 23 -12 26 -13 5z"/>
<path d="M680 1830 c-8 -5 -11 -13 -6 -17 5 -4 11 -2 13 5 3 6 10 9 15 6 7 -4
8 -2 4 4 -9 14 -7 14 -26 2z"/>
<path d="M896 1828 c3 -4 -1 -8 -8 -8 -18 0 -41 -37 -28 -45 6 -4 9 -1 8 7 -2
7 4 12 12 10 8 -2 12 0 8 3 -4 4 2 15 14 25 17 13 18 17 5 17 -9 0 -14 -4 -11
-9z"/>
<path d="M1016 1828 c3 -4 -3 -8 -12 -8 -10 0 -15 -3 -11 -6 3 -4 14 -3 24 1
10 5 23 7 30 6 6 -1 14 2 16 6 3 5 -8 8 -23 8 -16 1 -26 -3 -24 -7z"/>
<path d="M1086 1827 c3 -10 9 -15 12 -12 3 3 0 11 -7 18 -10 9 -11 8 -5 -6z"/>
<path d="M710 1810 c-9 -6 -10 -10 -3 -10 6 0 15 5 18 10 8 12 4 12 -15 0z"/>
<path d="M770 1805 c0 -8 4 -15 10 -15 5 0 7 7 4 15 -4 8 -8 15 -10 15 -2 0
-4 -7 -4 -15z"/>
<path d="M966 1803 c-6 -14 -5 -15 5 -6 7 7 10 15 7 18 -3 3 -9 -2 -12 -12z"/>
<path d="M1146 1805 c-11 -8 -15 -15 -9 -15 6 0 16 7 23 15 16 19 11 19 -14 0z"/>
<path d="M735 1800 c-3 -5 -1 -10 4 -10 6 0 11 5 11 10 0 6 -2 10 -4 10 -3 0
-8 -4 -11 -10z"/>
<path d="M906 1802 c-3 -5 1 -9 9 -9 8 0 12 4 9 9 -3 4 -7 8 -9 8 -2 0 -6 -4
-9 -8z"/>
<path d="M581 1714 c0 -11 3 -14 6 -6 3 7 2 16 -1 19 -3 4 -6 -2 -5 -13z"/>
<path d="M596 1615 c-10 -7 -16 -20 -13 -27 4 -11 6 -11 6 0 1 8 6 10 14 6 6
-4 9 -4 5 1 -4 4 -3 14 3 22 14 17 9 16 -15 -2z"/>
<path d="M2293 1613 c-17 -6 -17 -20 0 -26 8 -3 13 3 13 14 0 11 0 19 -1 18 0
0 -6 -3 -12 -6z"/>
<path d="M2274 1569 c-3 -6 2 -18 12 -27 17 -16 17 -16 5 0 -7 9 -10 22 -6 28
3 5 4 10 1 10 -3 0 -8 -5 -12 -11z"/>
<path d="M585 1560 c-3 -6 1 -7 9 -4 18 7 21 14 7 14 -6 0 -13 -4 -16 -10z"/>
<path d="M590 1540 c-12 -7 -10 -9 7 -7 12 0 19 5 17 9 -6 10 -6 10 -24 -2z"/>
<path d="M2273 1477 c1 -7 -4 -11 -11 -9 -8 1 -11 -2 -7 -8 5 -8 13 -6 24 4
10 9 20 15 22 14 2 -2 3 -1 1 1 -6 11 -31 8 -29 -2z"/>
<path d="M1095 1380 c-3 -5 -1 -10 4 -10 6 0 11 5 11 10 0 6 -2 10 -4 10 -3 0
-8 -4 -11 -10z"/>
<path d="M2233 1355 c0 -8 4 -12 9 -9 5 3 6 10 3 15 -9 13 -12 11 -12 -6z"/>
<path d="M1094 1339 c-3 -6 -3 -13 0 -16 3 -4 6 -1 6 5 0 6 7 9 15 6 8 -4 15
-4 15 -1 0 11 -30 16 -36 6z"/>
<path d="M1095 1300 c3 -5 8 -10 11 -10 2 0 4 5 4 10 0 6 -5 10 -11 10 -5 0
-7 -4 -4 -10z"/>
<path d="M589 1266 c0 0 -2 -11 -3 -23 -2 -14 2 -19 11 -16 11 4 11 8 1 21
-11 13 -10 15 5 9 10 -4 21 -7 23 -7 3 0 3 -4 0 -8 -3 -5 1 -9 9 -9 11 0 12 4
4 14 -8 9 -8 13 -1 13 6 0 16 -8 21 -17 6 -10 11 -13 11 -7 0 18 -23 32 -52
32 -16 0 -28 -1 -29 -2z"/>
<path d="M780 1255 c-19 -22 -8 -25 13 -3 9 10 13 18 8 18 -5 0 -14 -7 -21
-15z"/>
<path d="M819 1253 c-13 -17 -13 -17 6 -3 11 8 22 16 24 17 2 2 0 3 -6 3 -6 0
-17 -8 -24 -17z"/>
<path d="M940 1255 c-7 -9 -11 -17 -9 -20 3 -2 10 5 17 15 14 24 10 26 -8 5z"/>
<path d="M1080 1260 c-8 -5 -12 -12 -9 -15 4 -3 12 1 19 10 14 17 11 19 -10 5z"/>
<path d="M987 1247 c-3 -8 1 -14 8 -14 7 0 11 6 8 14 -3 7 -6 13 -8 13 -2 0
-5 -6 -8 -13z"/>
<path d="M730 1246 c0 -2 7 -7 16 -10 8 -3 12 -2 9 4 -6 10 -25 14 -25 6z"/>
<path d="M890 1246 c0 -2 7 -7 16 -10 8 -3 12 -2 9 4 -6 10 -25 14 -25 6z"/>
<path d="M1050 1241 c0 -6 4 -13 10 -16 6 -3 7 1 4 9 -7 18 -14 21 -14 7z"/>
<path d="M1796 1238 c2 -3 -1 -8 -8 -10 -6 -2 -12 -12 -14 -21 -1 -9 2 -15 7
-11 5 3 7 9 4 14 -3 5 5 12 17 16 24 7 35 4 31 -8 -2 -5 1 -8 6 -8 6 0 9 8 8
18 -1 12 -9 18 -28 17 -15 0 -25 -3 -23 -7z"/>
<path d="M1863 1225 c0 -7 8 -10 19 -7 10 2 18 6 18 7 0 1 -8 5 -18 7 -11 3
-19 0 -19 -7z"/>
<path d="M990 1216 c0 -2 8 -10 18 -17 15 -13 16 -12 3 4 -13 16 -21 21 -21
13z"/>
<path d="M585 1200 c-3 -5 -1 -10 5 -10 6 0 8 -5 4 -12 -4 -7 -3 -8 4 -4 6 4
9 13 5 21 -6 18 -10 19 -18 5z"/>
<path d="M1650 1200 c0 -5 5 -10 10 -10 6 0 10 5 10 10 0 6 -4 10 -10 10 -5 0
-10 -4 -10 -10z"/>
<path d="M1614 1171 c9 -15 46 -20 53 -8 3 7 3 9 -1 5 -5 -4 -19 -3 -33 3 -13
5 -22 5 -19 0z"/>
<path d="M596 1138 c3 -4 0 -8 -5 -8 -6 0 -11 -8 -10 -17 0 -11 3 -13 6 -5 2
6 10 9 16 5 7 -3 9 -3 5 2 -4 4 -3 13 2 20 7 8 5 12 -5 12 -8 0 -12 -4 -9 -9z"/>
<path d="M1610 1146 c0 -2 7 -7 16 -10 8 -3 12 -2 9 4 -6 10 -25 14 -25 6z"/>
<path d="M585 1080 c-3 -6 1 -7 9 -4 18 7 21 14 7 14 -6 0 -13 -4 -16 -10z"/>
<path d="M590 1060 c-12 -7 -10 -9 7 -7 12 0 19 5 17 9 -6 10 -6 10 -24 -2z"/>
<path d="M595 1019 c-4 -6 -5 -12 -2 -15 2 -3 7 2 10 11 7 17 1 20 -8 4z"/>
<path d="M1625 1020 c-3 -6 1 -7 9 -4 18 7 21 14 7 14 -6 0 -13 -4 -16 -10z"/>
<path d="M596 895 c-10 -7 -16 -20 -13 -27 4 -11 6 -11 6 0 1 8 6 10 14 6 6
-4 9 -4 5 1 -4 4 -3 14 3 22 14 17 9 16 -15 -2z"/>
<path d="M2315 860 c-3 -5 -1 -10 4 -10 6 0 11 5 11 10 0 6 -2 10 -4 10 -3 0
-8 -4 -11 -10z"/>
<path d="M585 840 c-3 -6 1 -7 9 -4 18 7 21 14 7 14 -6 0 -13 -4 -16 -10z"/>
<path d="M590 820 c-12 -7 -10 -9 7 -7 12 0 19 5 17 9 -6 10 -6 10 -24 -2z"/>
<path d="M1630 819 c0 -5 5 -7 10 -4 6 3 10 8 10 11 0 2 -4 4 -10 4 -5 0 -10
-5 -10 -11z"/>
<path d="M1628 743 c7 -3 16 -2 19 1 4 3 -2 6 -13 5 -11 0 -14 -3 -6 -6z"/>
<path d="M390 708 c-12 -22 -12 -22 6 -6 10 10 15 20 12 24 -4 3 -12 -5 -18
-18z"/>
<path d="M433 723 c4 -3 -1 -11 -10 -18 -13 -9 -13 -14 -3 -20 8 -5 11 -4 7 2
-4 6 0 13 8 17 18 6 20 26 3 26 -6 0 -8 -3 -5 -7z"/>
<path d="M463 724 c4 -4 2 -13 -4 -21 -9 -9 -8 -13 0 -13 6 0 11 5 11 11 0 5
5 7 10 4 6 -3 10 -2 10 3 0 6 -8 13 -17 16 -10 4 -14 4 -10 0z"/>
<path d="M503 713 c0 -9 4 -10 14 -2 7 6 13 12 13 14 0 1 -6 2 -13 2 -8 0 -14
-6 -14 -14z"/>
<path d="M575 719 c-4 -6 -5 -12 -2 -15 2 -3 7 2 10 11 7 17 1 20 -8 4z"/>
<path d="M1497 723 c-11 -11 -8 -21 9 -27 13 -5 14 -4 6 7 -7 8 -9 17 -5 20 3
4 4 7 1 7 -2 0 -8 -3 -11 -7z"/>
<path d="M1525 720 c-3 -5 -1 -10 4 -10 6 0 11 5 11 10 0 6 -2 10 -4 10 -3 0
-8 -4 -11 -10z"/>
<path d="M1559 728 c-6 -21 -5 -38 1 -38 5 0 8 9 7 20 -1 17 -5 26 -8 18z"/>
<path d="M1590 719 c-12 -8 -11 -9 5 -7 12 2 19 -2 17 -10 -1 -8 2 -11 8 -7 8
5 7 11 -1 21 -14 17 -10 16 -29 3z"/>
<path d="M2093 715 c0 -8 4 -12 9 -9 5 3 6 10 3 15 -9 13 -12 11 -12 -6z"/>
<path d="M2120 708 c-10 -21 -10 -21 3 -6 8 10 17 15 20 11 4 -3 7 -1 7 5 0
20 -19 13 -30 -10z"/>
<path d="M2168 716 c4 -6 7 -14 7 -18 0 -3 4 -10 9 -15 5 -4 6 -3 3 3 -4 7 0
14 8 18 8 3 15 11 14 18 0 10 -2 10 -6 1 -2 -7 -9 -13 -14 -13 -6 0 -8 4 -5 8
3 5 -1 9 -9 9 -8 0 -11 -5 -7 -11z"/>
<path d="M2223 724 c4 -4 2 -13 -4 -21 -9 -9 -8 -13 0 -13 6 0 11 5 11 11 0 5
5 7 10 4 6 -3 10 -2 10 3 0 6 -8 13 -17 16 -10 4 -14 4 -10 0z"/>
<path d="M2263 715 c0 -8 4 -12 9 -9 5 3 6 10 3 15 -9 13 -12 11 -12 -6z"/>
<path d="M2336 722 c-3 -5 1 -9 9 -9 8 0 12 4 9 9 -3 4 -7 8 -9 8 -2 0 -6 -4
-9 -8z"/>
<path d="M530 700 c0 -5 5 -10 11 -10 5 0 7 5 4 10 -3 6 -8 10 -11 10 -2 0 -4
-4 -4 -10z"/>
<path d="M1424 703 c4 -7 15 -17 26 -23 14 -7 18 -6 16 5 -1 8 -6 18 -11 22
-4 4 -5 2 -1 -4 4 -7 3 -13 -1 -13 -5 0 -15 6 -22 13 -11 9 -12 9 -7 0z"/>
<path d="M1580 686 c0 -2 8 -10 18 -17 15 -13 16 -12 3 4 -13 16 -21 21 -21
13z"/>
</g>
</svg>
